# xmcd
#
# Track frame offsets:
#	150
#	18518
#	34786
#	55409
#	77037
#	98436
#	120105
#	140661
#	164875
#	181801
#	197356
#	217664
#	234476
#
# Disc length: 3604 seconds
#
# Revision: 0
# Processed by: cddbd v1.5.2PL0 Copyright (c) Steve Scherf et al.
# Submitted via: SynApp - FreeCDDB Version: 2.3
#
DISCID=a00e120d
DTITLE=Sonique - Hear My Cry
DYEAR=0000
DGENRE=A capella
TTITLE0=Sonique - 01 - It Feels So Good
TTITLE1=Sonique - 02 - I Put A Spell On You
TTITLE2=Sonique - 03 - Are You Ready-
TTITLE3=Sonique - 04 - Cold And Lonely
TTITLE4=Sonique - 05 - Drama
TTITLE5=Sonique - 06 - Move Closer
TTITLE6=Sonique - 07 - Can't Get Enough
TTITLE7=Sonique - 08 - Hear My Cry
TTITLE8=Sonique - 09 - Empty (Hideaway)
TTITLE9=Sonique - 10 - Love Is On Our Side
TTITLE10=Sonique - 11 - Sky
TTITLE11=Sonique - 12 - Learn To Forget
TTITLE12=Sonique - 13 - It Feels So Good (Can 7 Soulfood Club Mix)
EXTD=
EXTT0=
EXTT1=
EXTT2=
EXTT3=
EXTT4=
EXTT5=
EXTT6=
EXTT7=
EXTT8=
EXTT9=
EXTT10=
EXTT11=
EXTT12=
PLAYORDER=
